<svg width="100%" height="17" viewBox="0 0 80 17" preserveAspectRatio="none" xmlns="http://www.w3.org/2000/svg"><defs><linearGradient id="areaGradient-5yf0ljf" x1="0" y1="0" x2="0" y2="1"><stop offset="0%" stop-color="#ef5350" stop-opacity="0.3"></stop><stop offset="100%" stop-color="#ef5350" stop-opacity="0.05"></stop></linearGradient></defs><path d="
        M 0,17
        L 0,14.166666666666668
        L 3.333333333333333,17 L 6.666666666666666,14.875 L 10,12.75 L 13.333333333333332,8.5 L 16.666666666666668,7.083333333333332 L 20,9.916666666666666 L 23.333333333333336,10.625 L 26.666666666666664,9.916666666666666 L 30,9.916666666666666 L 33.333333333333336,8.5 L 36.666666666666664,7.083333333333332 L 40,8.5 L 43.33333333333333,5.666666666666668 L 46.66666666666667,3.541666666666668 L 50,4.958333333333332 L 53.33333333333333,7.083333333333332 L 56.66666666666667,5.666666666666668 L 60,4.25 L 63.33333333333333,2.833333333333332 L 66.66666666666667,4.25 L 70,2.125 L 73.33333333333333,3.541666666666668 L 76.66666666666667,2.125 L 80,0
        L 80,17
        Z
      " fill="url(#areaGradient-5yf0ljf)"></path><path d="M 0,14.166666666666668 L 3.333333333333333,17 L 6.666666666666666,14.875 L 10,12.75 L 13.333333333333332,8.5 L 16.666666666666668,7.083333333333332 L 20,9.916666666666666 L 23.333333333333336,10.625 L 26.666666666666664,9.916666666666666 L 30,9.916666666666666 L 33.333333333333336,8.5 L 36.666666666666664,7.083333333333332 L 40,8.5 L 43.33333333333333,5.666666666666668 L 46.66666666666667,3.541666666666668 L 50,4.958333333333332 L 53.33333333333333,7.083333333333332 L 56.66666666666667,5.666666666666668 L 60,4.25 L 63.33333333333333,2.833333333333332 L 66.66666666666667,4.25 L 70,2.125 L 73.33333333333333,3.541666666666668 L 76.66666666666667,2.125 L 80,0" fill="none" stroke="#ef5350" stroke-width="1.2" stroke-linejoin="round" stroke-linecap="round"></path><path d="M 3.333333333333333,11.888111888111904 L 6.666666666666666,14.979020979020964 L 10,15.0979020979021 L 13.333333333333332,5.706293706293742 L 16.666666666666668,0.7132867132867382 L 20,10.1048951048951 L 23.333333333333336,12.006993006992998 L 26.666666666666664,17 L 30,12.244755244755229 L 33.333333333333336,10.223776223776236 L 36.666666666666664,8.678321678321707 L 40,10.937062937062933 L 43.33333333333333,4.398601398601443 L 46.66666666666667,0 L 50,4.041958041958074 L 53.33333333333333,10.223776223776236 L 56.66666666666667,8.202797202797198 L 60,4.636363636363676 L 63.33333333333333,4.874125874125907 L 66.66666666666667,6.657342657342669 L 70,3.8041958041958424 L 73.33333333333333,6.3006993006993 L 76.66666666666667,1.7832167832168473 L 80,0.7132867132867382" fill="none" stroke="#a21caf" stroke-width="0.5" stroke-linejoin="round" stroke-linecap="round"></path></svg>