<svg width="100%" height="17" viewBox="0 0 80 17" preserveAspectRatio="none" xmlns="http://www.w3.org/2000/svg"><defs><linearGradient id="areaGradient-3djr9u5" x1="0" y1="0" x2="0" y2="1"><stop offset="0%" stop-color="#ef5350" stop-opacity="0.3"></stop><stop offset="100%" stop-color="#ef5350" stop-opacity="0.05"></stop></linearGradient></defs><path d="
        M 0,17
        L 0,17
        L 1.6666666666666665,12.641025641025642 L 3.333333333333333,9.58974358974359 L 5,9.58974358974359 L 6.666666666666666,10.897435897435898 L 8.333333333333334,8.282051282051283 L 10,10.897435897435898 L 11.666666666666668,12.205128205128204 L 13.333333333333332,11.333333333333334 L 15,11.76923076923077 L 16.666666666666668,11.333333333333334 L 18.333333333333332,12.641025641025642 L 20,13.512820512820513 L 21.666666666666664,10.025641025641026 L 23.333333333333336,8.717948717948719 L 25,7.846153846153847 L 26.666666666666664,9.58974358974359 L 28.333333333333336,10.025641025641026 L 30,8.717948717948719 L 31.666666666666664,9.58974358974359 L 33.333333333333336,8.717948717948719 L 35,8.282051282051283 L 36.666666666666664,9.153846153846153 L 38.333333333333336,6.538461538461538 L 40,5.230769230769232 L 41.66666666666667,6.102564102564102 L 43.33333333333333,6.102564102564102 L 45,3.4871794871794872 L 46.66666666666667,0.8717948717948723 L 48.33333333333333,0 L 50,0.4358974358974379 L 51.66666666666667,0.4358974358974379 L 53.33333333333333,2.179487179487179 L 55,4.358974358974358 L 56.66666666666667,3.9230769230769216 L 58.33333333333333,4.794871794871796 L 60,5.230769230769232 L 61.66666666666667,5.230769230769232 L 63.33333333333333,3.9230769230769216 L 65,3.9230769230769216 L 66.66666666666667,4.358974358974358 L 68.33333333333333,5.230769230769232 L 70,5.230769230769232 L 71.66666666666667,5.666666666666668 L 73.33333333333333,6.102564102564102 L 75,5.666666666666668 L 76.66666666666667,6.9743589743589745 L 78.33333333333333,6.538461538461538 L 80,9.153846153846153
        L 80,17
        Z
      " fill="url(#areaGradient-3djr9u5)"></path><path d="M 0,17 L 1.6666666666666665,12.641025641025642 L 3.333333333333333,9.58974358974359 L 5,9.58974358974359 L 6.666666666666666,10.897435897435898 L 8.333333333333334,8.282051282051283 L 10,10.897435897435898 L 11.666666666666668,12.205128205128204 L 13.333333333333332,11.333333333333334 L 15,11.76923076923077 L 16.666666666666668,11.333333333333334 L 18.333333333333332,12.641025641025642 L 20,13.512820512820513 L 21.666666666666664,10.025641025641026 L 23.333333333333336,8.717948717948719 L 25,7.846153846153847 L 26.666666666666664,9.58974358974359 L 28.333333333333336,10.025641025641026 L 30,8.717948717948719 L 31.666666666666664,9.58974358974359 L 33.333333333333336,8.717948717948719 L 35,8.282051282051283 L 36.666666666666664,9.153846153846153 L 38.333333333333336,6.538461538461538 L 40,5.230769230769232 L 41.66666666666667,6.102564102564102 L 43.33333333333333,6.102564102564102 L 45,3.4871794871794872 L 46.66666666666667,0.8717948717948723 L 48.33333333333333,0 L 50,0.4358974358974379 L 51.66666666666667,0.4358974358974379 L 53.33333333333333,2.179487179487179 L 55,4.358974358974358 L 56.66666666666667,3.9230769230769216 L 58.33333333333333,4.794871794871796 L 60,5.230769230769232 L 61.66666666666667,5.230769230769232 L 63.33333333333333,3.9230769230769216 L 65,3.9230769230769216 L 66.66666666666667,4.358974358974358 L 68.33333333333333,5.230769230769232 L 70,5.230769230769232 L 71.66666666666667,5.666666666666668 L 73.33333333333333,6.102564102564102 L 75,5.666666666666668 L 76.66666666666667,6.9743589743589745 L 78.33333333333333,6.538461538461538 L 80,9.153846153846153" fill="none" stroke="#ef5350" stroke-width="1.2" stroke-linejoin="round" stroke-linecap="round"></path><path d="M 1.6666666666666665,7.149062191510367 L 3.333333333333333,10.270483711747284 L 5,8.189536031589341 L 6.666666666666666,9.7502467917078 L 8.333333333333334,7.048371174728533 L 10,9.532082922013824 L 11.666666666666668,9.448173741362293 L 13.333333333333332,9.532082922013824 L 15,9.632773938795658 L 16.666666666666668,10.706811451135243 L 18.333333333333332,10.992102665350444 L 20,12.334649555774924 L 21.666666666666664,12.502467917077986 L 23.333333333333336,13.073050345508392 L 25,13.526159921026654 L 26.666666666666664,15.422507403751233 L 28.333333333333336,16.177690029615 L 30,15.053307008884502 L 31.666666666666664,14.566633761105628 L 33.333333333333336,13.140177690029615 L 35,12.20039486673248 L 36.666666666666664,12.049358341559726 L 38.333333333333336,8.307008884501483 L 40,6.9141164856860815 L 41.66666666666667,7.216189536031589 L 43.33333333333333,8.54195459032577 L 45,5.6890424481737405 L 46.66666666666667,0.78874629812438 L 48.33333333333333,0 L 50,0.9733464955577524 L 51.66666666666667,1.5439289239881564 L 53.33333333333333,5.521224086870685 L 55,8.525172754195461 L 56.66666666666667,7.820335636722609 L 58.33333333333333,8.94471865745311 L 60,10.320829220138204 L 61.66666666666667,9.112537018756173 L 63.33333333333333,9.146100691016784 L 65,9.263573543928928 L 66.66666666666667,10.421520236920038 L 68.33333333333333,10.052319842053308 L 70,11.32773938795657 L 71.66666666666667,13.777887462981242 L 73.33333333333333,14.147087857847978 L 75,12.603158933859822 L 76.66666666666667,15.254689042448176 L 78.33333333333333,15.77492596248766 L 80,17" fill="none" stroke="#a21caf" stroke-width="0.5" stroke-linejoin="round" stroke-linecap="round"></path></svg>