<svg width="100%" height="17" viewBox="0 0 80 17" preserveAspectRatio="none" xmlns="http://www.w3.org/2000/svg"><defs><linearGradient id="areaGradient-665nk1d" x1="0" y1="0" x2="0" y2="1"><stop offset="0%" stop-color="#ef5350" stop-opacity="0.3"></stop><stop offset="100%" stop-color="#ef5350" stop-opacity="0.05"></stop></linearGradient></defs><path d="
        M 0,17
        L 0,17
        L 1.2121212121212122,16.697104677060196 L 2.4242424242424243,16.659242761692745 L 3.6363636363636367,16.886414253897655 L 4.848484848484849,15.826280623608012 L 6.0606060606060606,15.864142538975461 L 7.272727272727273,15.636971046770553 L 8.484848484848484,14.87973273942093 L 9.696969696969697,13.857461024498953 L 10.909090909090908,13.743875278396391 L 12.121212121212121,13.857461024498953 L 13.333333333333332,13.592427616926596 L 14.545454545454547,13.554565701559149 L 15.757575757575758,9.12472160356355 L 16.96969696969697,6.701559020044675 L 18.18181818181818,5.035634743875423 L 19.393939393939394,2.3853006681514266 L 20.606060606060606,3.8240534521159866 L 21.818181818181817,2.801781737193794 L 23.03030303030303,0.15144766147000865 L 24.242424242424242,0.45434298440981635 L 25.454545454545453,0.3407572383074715 L 26.666666666666664,0.4164810690423657 L 27.878787878787882,0.7193763919821734 L 29.090909090909093,0.6436525612472757 L 30.303030303030305,0 L 31.515151515151516,0.7572383073498372 L 32.72727272727273,0.45434298440981635 L 33.93939393939394,0.7572383073498372 L 35.15151515151515,0.3407572383074715 L 36.36363636363636,0.5679287305123779 L 37.57575757575758,0.5300668151449273 L 38.78787878787879,0.9086859688196327 L 40,2.309576837416529 L 41.21212121212121,3.180400890868711 L 42.42424242424242,2.915367483296354 L 43.63636363636363,3.407572383073619 L 44.848484848484844,2.5367483296214353 L 46.06060606060606,2.006681514476723 L 47.27272727272727,2.1581291759465167 L 48.484848484848484,2.044543429844172 L 49.696969696969695,2.082405345211619 L 50.90909090909091,2.801781737193794 L 52.12121212121212,1.968819599109274 L 53.33333333333333,1.9309576837418252 L 54.54545454545454,1.8930957683741614 L 55.757575757575765,1.968819599109274 L 56.96969696969697,2.1959910913141805 L 58.18181818181819,2.2338530066816293
        L 58.18181818181819,17
        Z
      " fill="url(#areaGradient-665nk1d)"></path><path d="M 0,17 L 1.2121212121212122,16.697104677060196 L 2.4242424242424243,16.659242761692745 L 3.6363636363636367,16.886414253897655 L 4.848484848484849,15.826280623608012 L 6.0606060606060606,15.864142538975461 L 7.272727272727273,15.636971046770553 L 8.484848484848484,14.87973273942093 L 9.696969696969697,13.857461024498953 L 10.909090909090908,13.743875278396391 L 12.121212121212121,13.857461024498953 L 13.333333333333332,13.592427616926596 L 14.545454545454547,13.554565701559149 L 15.757575757575758,9.12472160356355 L 16.96969696969697,6.701559020044675 L 18.18181818181818,5.035634743875423 L 19.393939393939394,2.3853006681514266 L 20.606060606060606,3.8240534521159866 L 21.818181818181817,2.801781737193794 L 23.03030303030303,0.15144766147000865 L 24.242424242424242,0.45434298440981635 L 25.454545454545453,0.3407572383074715 L 26.666666666666664,0.4164810690423657 L 27.878787878787882,0.7193763919821734 L 29.090909090909093,0.6436525612472757 L 30.303030303030305,0 L 31.515151515151516,0.7572383073498372 L 32.72727272727273,0.45434298440981635 L 33.93939393939394,0.7572383073498372 L 35.15151515151515,0.3407572383074715 L 36.36363636363636,0.5679287305123779 L 37.57575757575758,0.5300668151449273 L 38.78787878787879,0.9086859688196327 L 40,2.309576837416529 L 41.21212121212121,3.180400890868711 L 42.42424242424242,2.915367483296354 L 43.63636363636363,3.407572383073619 L 44.848484848484844,2.5367483296214353 L 46.06060606060606,2.006681514476723 L 47.27272727272727,2.1581291759465167 L 48.484848484848484,2.044543429844172 L 49.696969696969695,2.082405345211619 L 50.90909090909091,2.801781737193794 L 52.12121212121212,1.968819599109274 L 53.33333333333333,1.9309576837418252 L 54.54545454545454,1.8930957683741614 L 55.757575757575765,1.968819599109274 L 56.96969696969697,2.1959910913141805 L 58.18181818181819,2.2338530066816293" fill="none" stroke="#ef5350" stroke-width="1.2" stroke-linejoin="round" stroke-linecap="round"></path><path d="M 1.2121212121212122,14.399999999999984 L 2.4242424242424243,13.799999999999995 L 3.6363636363636367,14.800000000000011 L 4.848484848484849,15.999999999999986 L 6.0606060606060606,17 L 7.272727272727273,14.800000000000011 L 8.484848484848484,15.79999999999999 L 9.696969696969697,13.400000000000004 L 10.909090909090908,15.000000000000007 L 12.121212121212121,16.19999999999998 L 13.333333333333332,16.19999999999998 L 14.545454545454547,15.999999999999986 L 15.757575757575758,15.399999999999999 L 16.96969696969697,16.19999999999998 L 18.18181818181818,13.200000000000008 L 19.393939393939394,10.59999999999999 L 20.606060606060606,12.599999999999985 L 21.818181818181817,11.199999999999978 L 23.03030303030303,8.799999999999994 L 24.242424242424242,7.999999999999975 L 25.454545454545453,7.199999999999992 L 26.666666666666664,5.799999999999985 L 27.878787878787882,0.9999999999999787 L 29.090909090909093,1.7999999999999972 L 30.303030303030305,2.1999999999999904 L 31.515151515151516,0 L 32.72727272727273,4.800000000000006 L 33.93939393939394,5.599999999999989 L 35.15151515151515,3.200000000000003 L 36.36363636363636,3.799999999999992 L 37.57575757575758,4.199999999999983 L 38.78787878787879,6.9999999999999964 L 40,10.399999999999995 L 41.21212121212121,12.799999999999981 L 42.42424242424242,14.399999999999984 L 43.63636363636363,12.599999999999985 L 44.848484848484844,11.600000000000005 L 46.06060606060606,9.39999999999998 L 47.27272727272727,8.599999999999998 L 48.484848484848484,9.39999999999998 L 49.696969696969695,9.800000000000008 L 50.90909090909091,10.999999999999984 L 52.12121212121212,7.799999999999979 L 53.33333333333333,8.200000000000006 L 54.54545454545454,10.59999999999999 L 55.757575757575765,12.599999999999985 L 56.96969696969697,13.799999999999995 L 58.18181818181819,12.999999999999977" fill="none" stroke="#a21caf" stroke-width="0.5" stroke-linejoin="round" stroke-linecap="round"></path></svg>