<svg width="100%" height="54" viewBox="0 0 120 54" preserveAspectRatio="none" xmlns="http://www.w3.org/2000/svg"><defs><linearGradient id="areaGradient-4oos474" x1="0" y1="0" x2="0" y2="1"><stop offset="0%" stop-color="#089981" stop-opacity="0.3"></stop><stop offset="100%" stop-color="#089981" stop-opacity="0.05"></stop></linearGradient></defs><path d="
        M 0,40
        L 0,34.285714285714285
        L 5,22.857142857142858 L 10,2.857142857142854 L 15,8.571428571428573 L 20,17.142857142857146 L 25,5.714285714285715 L 30,8.571428571428573 L 35,20 L 40,22.857142857142858 L 45,14.285714285714285 L 50,11.428571428571427 L 55,11.428571428571427 L 60,14.285714285714285 L 65,5.714285714285715 L 70,2.857142857142854 L 75,0 L 80,11.428571428571427 L 85,20 L 90,25.714285714285715 L 95,25.714285714285715 L 100,34.285714285714285 L 105,40 L 110,40 L 115,37.142857142857146 L 120,37.142857142857146
        L 120,40
        Z
      " fill="url(#areaGradient-4oos474)"></path><path d="M 0,34.285714285714285 L 5,22.857142857142858 L 10,2.857142857142854 L 15,8.571428571428573 L 20,17.142857142857146 L 25,5.714285714285715 L 30,8.571428571428573 L 35,20 L 40,22.857142857142858 L 45,14.285714285714285 L 50,11.428571428571427 L 55,11.428571428571427 L 60,14.285714285714285 L 65,5.714285714285715 L 70,2.857142857142854 L 75,0 L 80,11.428571428571427 L 85,20 L 90,25.714285714285715 L 95,25.714285714285715 L 100,34.285714285714285 L 105,40 L 110,40 L 115,37.142857142857146 L 120,37.142857142857146" fill="none" stroke="#089981" stroke-width="1.2" stroke-linejoin="round" stroke-linecap="round"></path><path d="M 5,6.8965517241379075 L 10,7.241379310344733 L 15,5.517241379310349 L 20,5.172413793103402 L 25,0 L 30,0.6896551724137794 L 35,6.8965517241379075 L 40,7.586206896551687 L 45,8.965517241379239 L 50,3.7931034482758434 L 55,5.172413793103402 L 60,9.310344827586192 L 65,7.931034482758513 L 70,7.931034482758513 L 75,10.344827586206797 L 80,12.413793103448256 L 85,20.689655172413715 L 90,23.103448275862 L 95,28.62068965517235 L 100,34.1379310344827 L 105,38.275862068965495 L 110,38.275862068965495 L 115,40 L 120,33.10344827586197" fill="none" stroke="#a21caf" stroke-width="0.5" stroke-linejoin="round" stroke-linecap="round"></path><text x="0" y="48" fill="var(--muted-foreground)" font-size="10" text-anchor="start">21:00</text><text x="120" y="48" fill="var(--muted-foreground)" font-size="10" text-anchor="end">23:00</text></svg>